<svg width="24" height="24" viewBox="0 0 24 24" fill="none" xmlns="http://www.w3.org/2000/svg">
<path opacity="0.4" d="M16.19 2H7.81C4.17 2 2 4.17 2 7.81V16.18C2 19.83 4.17 22 7.81 22H16.18C19.82 22 21.99 19.83 21.99 16.19V7.81C22 4.17 19.83 2 16.19 2Z" fill="#147139"/>
<path d="M12 14.91C11.81 14.91 11.62 14.84 11.47 14.69L7.93999 11.16C7.80051 11.0189 7.72229 10.8284 7.72229 10.63C7.72229 10.4316 7.80051 10.2411 7.93999 10.1C8.22999 9.81001 8.70999 9.81001 8.99999 10.1L12 13.1L15 10.1C15.29 9.81001 15.77 9.81001 16.06 10.1C16.35 10.39 16.35 10.87 16.06 11.16L12.53 14.69C12.38 14.84 12.19 14.91 12 14.91Z" fill="#147139"/>
</svg>
