<svg width="26" height="26" viewBox="0 0 26 26" fill="none" xmlns="http://www.w3.org/2000/svg">
<g clip-path="url(#clip0_182_967)">
<path d="M18.7629 8.19773C18.2148 8.1299 17.8875 8.70272 18.0305 9.23618L18.8069 12.134C18.9499 12.6674 19.5197 12.9998 19.9605 12.667C20.7431 12.0761 21.1097 11.0689 20.8335 10.038C20.5573 9.00719 19.7362 8.31819 18.7629 8.19773ZM11.3236 8.83206C11.1909 9.06175 10.9725 9.22934 10.7164 9.29799L5.48188 10.7006C4.59645 10.9378 4.06612 11.8564 4.30337 12.7418L5.1661 15.9616C5.40335 16.847 6.32191 17.3773 7.20734 17.1401C7.6519 17.0209 8.10885 17.2848 8.22796 17.7293L8.65933 19.3392C8.89658 20.2246 9.81514 20.755 10.7006 20.5177L11.3445 20.3452C11.878 20.2022 12.1946 19.6539 12.0516 19.1204L11.4909 17.0276C11.3479 16.4941 11.6645 15.9458 12.198 15.8028L12.4418 15.7375C12.698 15.6688 12.9709 15.7048 13.2006 15.8374L16.5657 17.7802C16.7954 17.9128 17.0683 17.9487 17.3245 17.8801L17.5683 17.8148C18.1018 17.6718 18.4184 17.1235 18.2755 16.59L15.3422 5.64286C15.1992 5.10939 14.6509 4.79281 14.1174 4.93575L13.8736 5.00109C13.6174 5.06973 13.399 5.23733 13.2664 5.46702L11.3236 8.83206Z" fill="white"/>
</g>
<defs>
<clipPath id="clip0_182_967">
<rect width="20" height="20" fill="white" transform="translate(0.752441 5.92871) rotate(-15)"/>
</clipPath>
</defs>
</svg>
