<svg width="17" height="18" viewBox="0 0 17 18" fill="none" xmlns="http://www.w3.org/2000/svg">
<g clip-path="url(#clip0_542_739)">
<path d="M8.5 15.75C12.0208 15.75 14.875 12.7279 14.875 9C14.875 5.27208 12.0208 2.25 8.5 2.25C4.97918 2.25 2.125 5.27208 2.125 9C2.125 12.7279 4.97918 15.75 8.5 15.75Z" stroke="#FF8F4D" stroke-width="1.5" stroke-linecap="round" stroke-linejoin="round"/>
<path d="M7.96875 8.4375C8.10965 8.4375 8.24477 8.49676 8.3444 8.60225C8.44403 8.70774 8.5 8.85082 8.5 9V11.8125C8.5 11.9617 8.55597 12.1048 8.6556 12.2102C8.75523 12.3157 8.89035 12.375 9.03125 12.375" stroke="#FF8F4D" stroke-width="1.5" stroke-linecap="round" stroke-linejoin="round"/>
<path d="M8.23438 6.75C8.67448 6.75 9.03125 6.37224 9.03125 5.90625C9.03125 5.44026 8.67448 5.0625 8.23438 5.0625C7.79427 5.0625 7.4375 5.44026 7.4375 5.90625C7.4375 6.37224 7.79427 6.75 8.23438 6.75Z" fill="#FF8F4D"/>
</g>
<defs>
<clipPath id="clip0_542_739">
<rect width="17" height="18" fill="white"/>
</clipPath>
</defs>
</svg>
